# xmcd
#
# Track frame offsets:
#	202
#	10682
#	24170
#	40825
#	61070
#	73422
#	84370
#	96570
#	107177
#	119722
#	136495
#	150145
#	162372
#	174780
#
# Disc length: 2551 seconds
#
# Revision: 0
# Processed by: cddbd v1.4PL0 Copyright (c) Steve Scherf et al.
# Submitted via: EasyCDDAExtractor 4.6.9.1
#
DISCID=ac09f50e
DTITLE=Del McCoury - Don't Stop the Music
DYEAR=1990
DGENRE=Bluegrass
TTITLE0=Trainwreck of Emotion
TTITLE1=Lights on the Hill
TTITLE2=You'll Find Her Name Written There
TTITLE3=Highway of Pain
TTITLE4=I'll Put Someone in Your Place
TTITLE5=Blue Is the Way that I Feel
TTITLE6=Knee Deep in the Blues
TTITLE7=Sea of Sorrow
TTITLE8=Blues on My Mind
TTITLE9=I Feel the Blues Moving In
TTITLE10=Don't Our Love Look Natural?
TTITLE11=How Lonely Can You Get?
TTITLE12=Crazy Heart
TTITLE13=Don't Stop the Music
EXTD=
EXTT0=
EXTT1=
EXTT2=
EXTT3=
EXTT4=
EXTT5=
EXTT6=
EXTT7=
EXTT8=
EXTT9=
EXTT10=
EXTT11=
EXTT12=
EXTT13=
PLAYORDER=
